<?xml version="1.0" encoding="UTF-8"?>
<svg version="1.1" xmlns="http://www.w3.org/2000/svg" width="512" height="512">
<path d="M0 0 C0.64807617 0.16097168 1.29615234 0.32194336 1.96386719 0.48779297 C34.67074628 8.94478779 61.74168541 30.0751856 78.90039062 59.05517578 C84.5984232 69.1330016 89.25985875 79.73497488 92 91 C92.29777344 92.21042969 92.59554688 93.42085938 92.90234375 94.66796875 C97.11222684 113.68201774 96.13619456 134.06441042 92 153 C91.74476563 154.21429688 91.48953125 155.42859375 91.2265625 156.6796875 C87.58951251 171.39472461 79.5437231 184.38428439 70 196 C69.57460938 196.52013672 69.14921875 197.04027344 68.7109375 197.57617188 C62.59214622 205.02785775 56.18976212 212.20483611 49.61827087 219.26062012 C48.55503839 220.40342336 47.49335328 221.54766857 46.43336487 222.69348145 C34.69164286 235.37792108 22.53023706 247.6258623 10.29736328 259.83300781 C7.52625038 262.5983602 4.75974187 265.36826915 1.99447632 268.13946724 C-0.17087376 270.3084491 -2.33862197 272.47502166 -4.50708008 274.64089584 C-5.52833054 275.66148759 -6.5488621 276.6827993 -7.56860352 277.70489883 C-12.68427547 282.82983116 -17.82171885 287.86444954 -23.33010864 292.56822205 C-24.96200136 293.96741967 -26.54449341 295.40589943 -28.1171875 296.87109375 C-29.02726563 297.71800781 -29.93734375 298.56492187 -30.875 299.4375 C-31.80054688 300.30246094 -32.72609375 301.16742188 -33.6796875 302.05859375 C-36 304 -36 304 -38 304 C-38.23091763 297.36753251 -37.80865979 291.30388276 -36.51171875 284.80078125 C-34.28032327 272.58772353 -33.99719283 259.64082379 -36.2746582 247.44262695 C-39.87077611 226.3375319 -39.87077611 226.3375319 -34.00120354 217.67523003 C-28.52276354 210.53875388 -21.72460037 204.59519528 -14.9473877 198.72937012 C-12.00976288 196.15566275 -9.16116435 193.4873758 -6.30664062 190.82226562 C-3.08001277 187.81379037 0.14961305 184.81471968 3.45820618 181.89628601 C10.01406305 176.08962694 15.6630307 169.94522744 21 163 C21.74405594 162.04212082 22.48811188 161.08424164 23.25471497 160.09733582 C31.36306512 149.5423986 36.0486468 138.29629357 37 125 C37.08121094 124.00419922 37.08121094 124.00419922 37.1640625 122.98828125 C37.86740044 106.20408037 31.53758386 89.64043639 20.76171875 76.87890625 C11.07263279 66.54531346 -0.283622 60.42449169 -14 57 C-14.75410156 56.80664062 -15.50820313 56.61328125 -16.28515625 56.4140625 C-31.06655067 54.159634 -48.61585499 54.94555436 -61 64 C-73.74248744 74.14809211 -85.72810509 85.54332422 -97.13085938 97.16308594 C-98.83379098 98.83665666 -100.58150926 100.37613874 -102.40625 101.9140625 C-107.96585826 106.74920011 -113.129658 111.98014782 -118.32739258 117.19702148 C-120.058947 118.933936 -121.79578359 120.66543889 -123.53320312 122.39648438 C-128.6755267 127.53609012 -133.71618397 132.68698142 -138.4362793 138.22241211 C-141.24780696 141.41846721 -144.32785965 144.34359276 -147.375 147.3125 C-153.38361991 153.24571646 -158.82051685 159.32258079 -164 166 C-164.62261719 166.74378906 -165.24523437 167.48757812 -165.88671875 168.25390625 C-175.78727326 180.25913396 -180.28925217 193.46854031 -179 209 C-176.21320904 229.09537544 -167.67998757 246.03007595 -152 259 C-141.92992477 266.43386447 -130.92794444 269.4283258 -118.93261719 272.34912109 C-117 273 -117 273 -115 275 C-113.76351329 281.31982097 -116.473566 285.47684944 -119.77734375 290.77734375 C-123.78191239 296.58361638 -128.22590634 301.8252831 -133 307 C-134.0206958 308.1125415 -134.0206958 308.1125415 -135.06201172 309.24755859 C-137.28771859 311.64790766 -139.54386068 314.01523399 -141.8125 316.375 C-142.52970215 317.14352295 -143.2469043 317.9120459 -143.98583984 318.70385742 C-149.12006679 323.92598693 -149.12006679 323.92598693 -152.92578125 324.24609375 C-157.15918402 322.53014015 -161.29101421 320.73731812 -165.375 318.6875 C-166.25333496 318.24672119 -167.13166992 317.80594238 -168.03662109 317.35180664 C-176.77164786 312.82303123 -184.44936988 307.27607672 -192 301 C-193.41539062 299.824375 -193.41539062 299.824375 -194.859375 298.625 C-219.32151473 277.35357415 -234.03888831 248.22198955 -237 216 C-239.20892592 183.39753403 -229.34089387 150.03719248 -208 125 C-205.20460889 121.81325413 -202.33790241 118.69866212 -199.4206543 115.62329102 C-197.19974433 113.27604893 -194.99180536 110.91791598 -192.79711914 108.54614258 C-183.30411144 98.30900214 -173.52901661 88.37417379 -163.64526367 78.51489258 C-161.03772025 75.91277179 -158.43564936 73.30526247 -155.83398438 70.69726562 C-154.15136265 69.01530383 -152.46843122 67.33365179 -150.78515625 65.65234375 C-150.02042496 64.88558823 -149.25569366 64.1188327 -148.4677887 63.32884216 C-144.35407398 59.23284714 -140.15903368 55.29916165 -135.74632263 51.52613831 C-133.02789194 49.15045976 -130.51907223 46.58324697 -128 44 C-123.49816145 39.44892259 -118.90766384 35.11551773 -114 31 C-113.10925781 30.23171875 -112.21851563 29.4634375 -111.30078125 28.671875 C-79.84553257 1.86295717 -41.0072674 -10.30811739 0 0 Z " fill="#000000" transform="translate(407,23)"/>
<path d="M0 0 C13.80428033 5.78889175 27.68597713 12.23208536 38.84765625 22.35546875 C39.66105469 23.03996094 40.47445313 23.72445312 41.3125 24.4296875 C66.46683353 46.01822953 80.79217012 77.71495325 83.5703125 110.41796875 C85.8708627 143.07930112 75.13357073 173.7607044 53.97265625 198.48046875 C51.95221885 200.79161424 49.90503868 203.07720373 47.84765625 205.35546875 C47.12473389 206.16298584 47.12473389 206.16298584 46.38720703 206.98681641 C39.8534738 214.26839991 33.02920891 221.22252304 26.07861328 228.10546875 C22.34800391 231.81184709 18.7826519 235.58609887 15.37890625 239.59765625 C11.40803125 244.15605867 7.07204423 248.31639531 2.46875 252.2265625 C-4.07065579 257.91606521 -10.06033478 264.19675895 -16.15234375 270.35546875 C-30.79846291 285.16194688 -30.79846291 285.16194688 -38.15234375 291.35546875 C-39.26037242 292.33826727 -40.36589303 293.32390151 -41.46875 294.3125 C-68.37794064 318.12514454 -99.18476182 328.51726524 -135.15234375 326.35546875 C-163.81681262 323.78597832 -189.39418779 312.29119381 -210.15234375 292.35546875 C-211.05855469 291.51242187 -211.96476562 290.669375 -212.8984375 289.80078125 C-226.55513573 276.73126422 -236.475691 260.11026379 -242.52734375 242.23046875 C-242.75381592 241.56378174 -242.98028809 240.89709473 -243.21362305 240.21020508 C-246.95584541 228.40132074 -248.6600466 216.73447135 -248.54345703 204.37597656 C-248.52734347 202.35543394 -248.54343883 200.33689001 -248.5625 198.31640625 C-248.58338011 185.94779825 -246.48616198 174.12325392 -242.46484375 162.41796875 C-242.08356323 161.30010986 -242.08356323 161.30010986 -241.69458008 160.15966797 C-235.74304181 143.31864948 -226.65815463 129.96453539 -214.49609375 116.8828125 C-212.45539168 114.68225544 -210.48084257 112.44557078 -208.52734375 110.16796875 C-205.6174707 106.81410099 -202.53351818 103.68901648 -199.33984375 100.60546875 C-197.55033551 98.76483171 -195.89993466 96.89792539 -194.23803711 94.94555664 C-189.28137346 89.26771135 -183.9259365 83.98477132 -178.59375 78.6640625 C-177.47934157 77.54897864 -176.36508146 76.43374653 -175.2509613 75.31837463 C-172.92698354 72.99293113 -170.60122911 70.66928364 -168.27416992 68.34692383 C-165.31113924 65.38958972 -162.35262205 62.42778747 -159.39543247 59.46461391 C-157.09881743 57.16436277 -154.79979809 54.86652644 -152.50007439 52.56938362 C-151.40904569 51.47901578 -150.31874198 50.38792195 -149.22921944 49.29604912 C-143.86917713 43.92698017 -138.4974926 38.61903768 -132.71447754 33.70085144 C-130.72208811 31.98491247 -128.90195802 30.1341844 -127.08984375 28.23046875 C-123.68678626 24.77360798 -120.21294989 22.00729317 -116.15234375 19.35546875 C-115.82234375 19.35546875 -115.49234375 19.35546875 -115.15234375 19.35546875 C-114.9662182 25.94396871 -115.46362642 32.01161928 -116.65234375 38.48046875 C-119.18476967 53.71432054 -118.76091629 69.3024803 -117.37109375 84.6484375 C-117.29890625 85.87175781 -117.22671875 87.09507812 -117.15234375 88.35546875 C-116.96713417 89.74620605 -116.96713417 89.74620605 -116.77818298 91.16503906 C-116.36293442 96.17491471 -116.26228051 99.89457567 -118.92959595 104.27253723 C-121.53989762 107.22728814 -124.30301584 109.945057 -127.1875 112.625 C-128.22739242 113.63802766 -129.26432743 114.65409906 -130.29844666 115.67301941 C-133.01527976 118.33489054 -135.76829941 120.95587041 -138.53173828 123.56921387 C-141.31945787 126.21722398 -144.07409723 128.89911324 -146.83007812 131.58007812 C-149.93975423 134.60443991 -153.05138099 137.62583035 -156.19337463 140.61665344 C-161.46461375 145.65228186 -166.47567476 150.76203846 -171.15234375 156.35546875 C-171.87421875 157.1959375 -172.59609375 158.03640625 -173.33984375 158.90234375 C-186.71222184 175.15669987 -191.88918708 191.52858423 -190.15234375 212.35546875 C-188.30189666 228.51735237 -178.22543436 243.832513 -166.15234375 254.35546875 C-151.17795621 265.95448205 -132.89244286 269.73029286 -114.21484375 267.91796875 C-101.62093261 265.79283539 -90.49462064 258.82660085 -81.15234375 250.35546875 C-80.67313477 249.92298828 -80.19392578 249.49050781 -79.70019531 249.04492188 C-77.1843237 246.76994856 -74.68828488 244.4769208 -72.20703125 242.1640625 C-70.03374591 240.14261449 -67.8088454 238.19712733 -65.55541992 236.265625 C-60.71757661 232.0379418 -56.18444783 227.53140045 -51.6484375 222.984375 C-50.76632095 222.10321518 -49.88420441 221.22205536 -48.97535706 220.31419373 C-46.65001566 217.98970125 -44.32710757 215.66280968 -42.00500488 213.33508301 C-40.59089551 211.91902197 -39.17485254 210.50492554 -37.75805664 209.09155273 C-35.01047655 206.35018619 -32.26642269 203.60533841 -29.5234375 200.859375 C-28.68783798 200.02579971 -27.85223846 199.19222443 -26.99131775 198.33338928 C-22.71611771 194.0412275 -18.58670264 189.68507238 -14.6532135 185.07652283 C-12.2882933 182.36465822 -9.72672306 179.8663305 -7.15234375 177.35546875 C-2.60426939 172.85021466 1.77489725 168.30157947 5.84765625 163.35546875 C6.25870605 162.86884766 6.66975586 162.38222656 7.09326172 161.88085938 C21.30422759 144.99114914 26.25931316 130.52131367 24.84765625 108.35546875 C22.73147276 91.36432701 12.17873139 75.98588998 -0.69140625 65.234375 C-9.93281272 58.41333689 -19.81659107 54.93031891 -30.8671875 52.34765625 C-34.00212813 51.40083708 -35.85608556 50.66295559 -38.15234375 48.35546875 C-39.26607487 42.00720139 -37.51299803 38.24555505 -34.05859375 32.93359375 C-30.73915839 28.44419347 -26.96531223 24.42443158 -23.15234375 20.35546875 C-22.04270969 19.06849592 -20.93820737 17.77707361 -19.83984375 16.48046875 C-16.64919651 12.81573949 -13.26589268 9.36078962 -9.83984375 5.91796875 C-9.31156982 5.38510254 -8.7832959 4.85223633 -8.23901367 4.30322266 C-3.01256913 -0.9021305 -3.01256913 -0.9021305 0 0 Z " fill="#000000" transform="translate(279.15234375,165.64453125)"/>
</svg>
